<svg xmlns="http://www.w3.org/2000/svg" width="640" height="640" viewBox="0 0 640 640" fill="none" role="img" class=""><rect width="640" height="640" rx="44" fill="#FBFBF8"/>
    <path d="M37 319 H603" stroke="#E8A84D" stroke-width="2" stroke-dasharray="8 10" opacity=".45"/>
    <path d="M320 34 V606" stroke="#F7D58B" stroke-width="2" stroke-dasharray="8 10" opacity=".5"/>
    <path d="M76 105 H565 M76 96 V114 M565 96 V114" stroke="#20252A" stroke-width="3"/>
    <path d="M72 534 H568 M72 525 V543 M568 525 V543" stroke="#20252A" stroke-width="3" opacity=".5"/>
    <circle cx="56" cy="56" r="84" fill="#FFF9EC"/>
    <circle cx="584" cy="584" r="105" fill="#E8A84D" opacity=".12"/>
    
    <g transform="translate(320 270) scale(1.26) translate(-320 -270)">
      <ellipse cx="320" cy="440" rx="178" ry="39" fill="#20252A" opacity=".11"/>
      
      <path d="M175 345 Q182 232 276 178 Q310 160 320 196 Q330 160 364 178 Q458 232 465 345 Q460 408 405 429 Q360 446 320 402 Q280 446 235 429 Q180 408 175 345Z" fill="#E8A84D" stroke="#D18F37" stroke-width="7"/>
      <path d="M217 324 Q242 244 287 221" stroke="#F7D58B" stroke-width="22" stroke-linecap="round"/>
      <path d="M423 324 Q398 244 353 221" stroke="#F7D58B" stroke-width="22" stroke-linecap="round"/>
      <path d="M248 378 Q282 333 320 399 Q358 333 392 378" stroke="#F6D69C" stroke-width="16" stroke-linecap="round"/>
      
  <g transform="translate(320 263) scale(0.82)" fill="#20252A">
    <ellipse cx="-26" cy="-6" rx="5" ry="7"/>
    <ellipse cx="26" cy="-6" rx="5" ry="7"/>
    <path d="M-13 12 Q0 22 13 12" stroke="#20252A" stroke-width="5" stroke-linecap="round" fill="none"/>
    <circle cx="-43" cy="15" r="9" fill="#ff9b93" opacity=".62"/>
    <circle cx="43" cy="15" r="9" fill="#ff9b93" opacity=".62"/>
  </g>
      <ellipse cx="320" cy="432" rx="105" ry="22" fill="#E8A84D" opacity=".28"/>
    </g>
    <path d="M91 82 Q104 117 139 130 Q104 143 91 178 Q78 143 43 130 Q78 117 91 82Z" fill="#F7D58B" opacity=".82"/>
    <circle cx="538" cy="100" r="22" fill="#E8A84D" opacity=".28"/></svg>