<svg xmlns="http://www.w3.org/2000/svg" width="800" height="640" viewBox="0 0 800 640" fill="none" role="img" class=""><rect width="800" height="640" rx="44" fill="#F4F6E9"/>
    <circle cx="128" cy="112" r="108" fill="#FFF0CF" opacity=".22"/>
    <circle cx="711" cy="525" r="150" fill="#E95F58" opacity=".13"/>
    <path d="M437 79 L681 79 L663 479 Q660 526 613 526 H507 Q460 526 457 479Z" fill="#FFFCF7" stroke="#E4D9CB" stroke-width="6"/>
    <path d="M538 80 V190" stroke="#DED2C5" stroke-width="5"/>
    <path d="M554 80 V190" stroke="#DED2C5" stroke-width="5"/>
    <rect x="486" y="237" width="157" height="115" rx="23" fill="#FFF0CF" opacity=".72"/>
    <circle cx="564" cy="273" r="17" fill="#E95F58" opacity=".7"/>
    <path d="M522 314 Q562 336 605 314" stroke="#FFF" stroke-width="8" stroke-linecap="round"/>
    <g transform="translate(-174 22) scale(.72)">
      
    <g transform="translate(320 270) scale(1) translate(-320 -270)">
      <ellipse cx="320" cy="440" rx="178" ry="39" fill="#20252A" opacity=".11"/>
      
      <path d="M271 304 Q253 396 236 432 H404 Q387 396 369 304Z" fill="#FFF5DF" stroke="#E9DFC9" stroke-width="5"/>
      <path d="M176 277 Q181 138 320 138 Q459 138 464 277 Q420 326 320 328 Q220 326 176 277Z" fill="#E95F58" stroke="#D94B4D" stroke-width="6"/>
      <ellipse cx="257" cy="222" rx="26" ry="18" fill="#FFF2DC"/>
      <ellipse cx="364" cy="198" rx="30" ry="21" fill="#FFF2DC"/>
      <ellipse cx="397" cy="260" rx="22" ry="16" fill="#FFF2DC"/>
      
  <g transform="translate(320 350) scale(0.82)" fill="#20252A">
    <ellipse cx="-26" cy="-6" rx="5" ry="7"/>
    <ellipse cx="26" cy="-6" rx="5" ry="7"/>
    <path d="M-13 12 Q0 22 13 12" stroke="#20252A" stroke-width="5" stroke-linecap="round" fill="none"/>
    <circle cx="-43" cy="15" r="9" fill="#ff9b93" opacity=".62"/>
    <circle cx="43" cy="15" r="9" fill="#ff9b93" opacity=".62"/>
  </g>
      <ellipse cx="320" cy="432" rx="103" ry="22" fill="#E95F58" opacity=".25"/>
    </g>
    </g>
    <rect x="80" y="397" width="190" height="104" rx="18" fill="#FFF" stroke="#E4D9CB" stroke-width="5"/>
    <path d="M111 428 H233 M111 460 H197" stroke="#E95F58" stroke-width="9" stroke-linecap="round" opacity=".62"/></svg>