<svg xmlns="http://www.w3.org/2000/svg" width="1200" height="630" viewBox="0 0 1200 630" fill="none" role="img" class=""><defs>
      <linearGradient id="ogBg" x1="0" y1="0" x2="1" y2="1">
        <stop stop-color="#FFF3F1"/>
        <stop offset="1" stop-color="#FFFFFF"/>
      </linearGradient>
      <filter id="ogShadow"><feDropShadow dx="0" dy="18" stdDeviation="18" flood-color="#4A3C36" flood-opacity=".16"/></filter>
    </defs>
    <rect width="1200" height="630" rx="36" fill="url(#ogBg)"/>
    <circle cx="1082" cy="104" r="180" fill="#E9C6AE" opacity=".25"/>
    <circle cx="1100" cy="579" r="220" fill="#FF8279" opacity=".13"/>
    <path d="M72 96 H164" stroke="#FF8279" stroke-width="7" stroke-linecap="round"/>
    <text x="184" y="104" fill="#696D72" font-family="Arial, Helvetica, sans-serif" font-size="18" font-weight="700" letter-spacing="3">SQUISHY FACTORY</text>
    <text x="72" y="214" fill="#1F2328" font-family="Arial, Helvetica, sans-serif" font-size="58" font-weight="800"><tspan x="72" dy="0">Custom Mascot Squishy</tspan></text>
    <text x="72" y="314" fill="#686D73" font-family="Arial, Helvetica, sans-serif" font-size="23"><tspan x="72" dy="0">A sample-led custom character program for brands,</tspan><tspan x="72" dy="28">events and retail campaigns.</tspan></text>
    <rect x="72" y="500" width="362" height="58" rx="29" fill="#FF8279"/>
    <text x="253" y="537" text-anchor="middle" fill="#FFFFFF" font-family="Arial, Helvetica, sans-serif" font-size="18" font-weight="800">SOFT • SLOW-RISING • GIFTABLE</text>
    <g filter="url(#ogShadow)" transform="translate(720 -20) scale(.86)">
      <ellipse cx="320" cy="440" rx="178" ry="39" fill="#20252A" opacity=".11"/>
      
    <g transform="translate(320 270) scale(1) translate(-320 -270)">
      <ellipse cx="320" cy="440" rx="178" ry="39" fill="#20252A" opacity=".11"/>
      
      <path d="M250 186 L274 102 L326 168 L374 102 L398 186 Q452 236 438 350 Q421 451 320 465 Q219 451 202 350 Q188 236 250 186Z" fill="#FF8279" stroke="#EF716A" stroke-width="7"/>
      <path d="M253 183 Q320 138 387 183" stroke="#E9C6AE" stroke-width="15" stroke-linecap="round" opacity=".55"/>
      
  <g transform="translate(320 306) scale(1.1)" fill="#20252A">
    <ellipse cx="-26" cy="-6" rx="5" ry="7"/>
    <ellipse cx="26" cy="-6" rx="5" ry="7"/>
    <path d="M-13 12 Q0 22 13 12" stroke="#20252A" stroke-width="5" stroke-linecap="round" fill="none"/>
    <circle cx="-43" cy="15" r="9" fill="#ff9b93" opacity=".62"/>
    <circle cx="43" cy="15" r="9" fill="#ff9b93" opacity=".62"/>
  </g>
      <path d="M267 393 Q320 424 373 393" stroke="#E9C6AE" stroke-width="10" stroke-linecap="round" fill="none"/>
      <ellipse cx="320" cy="452" rx="112" ry="22" fill="#FF8279" opacity=".25"/>
    </g>
    </g>
    
  <path d="M0 -18 C3 -6 6 -3 18 0 C6 3 3 6 0 18 C-3 6 -6 3 -18 0 C-6 -3 -3 -6 0 -18Z" transform="translate(1042 186) scale(1.05)" fill="#FF8279" opacity=".85"/>
    
  <path d="M0 -18 C3 -6 6 -3 18 0 C6 3 3 6 0 18 C-3 6 -6 3 -18 0 C-6 -3 -3 -6 0 -18Z" transform="translate(938 520) scale(0.72)" fill="#E9C6AE" opacity=".85"/></svg>