<svg xmlns="http://www.w3.org/2000/svg" width="640" height="640" viewBox="0 0 640 640" fill="none" role="img" class=""><rect width="640" height="640" rx="44" fill="#FBFBF8"/>
    <path d="M37 319 H603" stroke="#78B87A" stroke-width="2" stroke-dasharray="8 10" opacity=".45"/>
    <path d="M320 34 V606" stroke="#D8E89A" stroke-width="2" stroke-dasharray="8 10" opacity=".5"/>
    <path d="M76 105 H565 M76 96 V114 M565 96 V114" stroke="#20252A" stroke-width="3"/>
    <path d="M72 534 H568 M72 525 V543 M568 525 V543" stroke="#20252A" stroke-width="3" opacity=".5"/>
    <circle cx="56" cy="56" r="84" fill="#F3F7EC"/>
    <circle cx="584" cy="584" r="105" fill="#78B87A" opacity=".12"/>
    
    <g transform="translate(320 270) scale(1.26) translate(-320 -270)">
      <ellipse cx="320" cy="440" rx="178" ry="39" fill="#20252A" opacity=".11"/>
      
      <path d="M320 172 C280 121 249 116 226 125 C236 177 272 201 320 199Z" fill="#D8E89A" stroke="#68A568" stroke-width="6"/>
      <path d="M320 198 C363 135 401 122 430 133 C421 190 382 216 320 216Z" fill="#78B87A" stroke="#68A568" stroke-width="6"/>
      <path d="M320 211 V291" stroke="#68A568" stroke-width="15" stroke-linecap="round"/>
      <ellipse cx="320" cy="351" rx="139" ry="126" fill="#FFF7E8" stroke="#EDE4D5" stroke-width="5"/>
      
  <g transform="translate(320 340) scale(0.98)" fill="#20252A">
    <ellipse cx="-26" cy="-6" rx="5" ry="7"/>
    <ellipse cx="26" cy="-6" rx="5" ry="7"/>
    <path d="M-13 12 Q0 22 13 12" stroke="#20252A" stroke-width="5" stroke-linecap="round" fill="none"/>
    <circle cx="-43" cy="15" r="9" fill="#ff9b93" opacity=".62"/>
    <circle cx="43" cy="15" r="9" fill="#ff9b93" opacity=".62"/>
  </g>
      <path d="M237 366 Q276 401 320 368 Q364 401 403 366" stroke="#78B87A" stroke-width="10" stroke-linecap="round" opacity=".32"/>
      <ellipse cx="320" cy="446" rx="105" ry="22" fill="#78B87A" opacity=".25"/>
    </g>
    <path d="M91 82 Q104 117 139 130 Q104 143 91 178 Q78 143 43 130 Q78 117 91 82Z" fill="#D8E89A" opacity=".82"/>
    <circle cx="538" cy="100" r="22" fill="#78B87A" opacity=".28"/></svg>